<?xml version="1.0" encoding="UTF-8"?>
<svg id="Layer_2" data-name="Layer 2" xmlns="http://www.w3.org/2000/svg" viewBox="0 0 106 139.31">
  <g id="Layer_5" data-name="Layer 5">
    <g>
      <g>
        <path d="M60.59,114.73c-1.75,0-3.17-1.42-3.17-3.17v-48.86c0-1.75,1.42-3.17,3.17-3.17h24.16c3.72,0,7.11.81,10.08,2.42,2.99,1.62,5.37,3.85,7.08,6.65,1.71,2.81,2.58,5.94,2.58,9.32s-.87,6.45-2.58,9.26c-1.71,2.8-4.09,5.03-7.08,6.65-2.97,1.61-6.36,2.42-10.08,2.42h-11.88c-.1,0-.17.08-.17.17v15.14c0,1.75-1.42,3.17-3.17,3.17h-8.94ZM72.88,73.32c-.1,0-.17.08-.17.17v9.43c0,.1.08.17.17.17l10.52-.05c1.71,0,3.03-.47,4.04-1.43.99-.94,1.47-2.07,1.47-3.46s-.48-2.52-1.47-3.46c-1.01-.96-2.33-1.43-4.03-1.43l-10.53.05Z" style="fill: #2d8acd;"/>
        <path d="M84.76,61.02c3.48,0,6.6.75,9.37,2.24,2.76,1.5,4.93,3.53,6.51,6.11,1.58,2.58,2.36,5.43,2.36,8.54s-.79,5.9-2.36,8.48c-1.58,2.58-3.75,4.62-6.51,6.11-2.76,1.5-5.89,2.24-9.37,2.24h-11.88c-.92,0-1.67.75-1.67,1.67v15.14c0,.92-.75,1.67-1.67,1.67h-8.94c-.92,0-1.67-.75-1.67-1.67v-48.86c0-.92.75-1.67,1.67-1.67h24.16M72.88,84.6s0,0,0,0l10.52-.05c2.09,0,3.78-.61,5.07-1.84,1.29-1.23,1.93-2.74,1.93-4.55s-.64-3.32-1.93-4.55c-1.29-1.23-2.98-1.84-5.07-1.84l-10.53.05c-.92,0-1.67.75-1.67,1.67v9.43c0,.92.75,1.67,1.67,1.67M84.76,58.02h-24.16c-2.58,0-4.67,2.1-4.67,4.67v48.86c0,2.58,2.1,4.67,4.67,4.67h8.94c2.58,0,4.67-2.1,4.67-4.67v-13.82h10.55c3.97,0,7.6-.88,10.79-2.6,3.22-1.74,5.79-4.16,7.64-7.19,1.86-3.05,2.81-6.43,2.81-10.04s-.94-7.06-2.8-10.1c-1.85-3.03-4.42-5.44-7.64-7.19-3.2-1.73-6.83-2.6-10.79-2.6h0ZM74.2,74.82l9.22-.05c1.72,0,2.53.58,2.98,1.01.69.66,1,1.39,1,2.37s-.31,1.71-1,2.37c-.46.44-1.27,1.02-3,1.02l-9.2.05v-6.78h0Z" style="fill: #fff;"/>
      </g>
      <g>
        <g>
          <path d="M42.83,121.73c-.78-2.33-1.06-9.24-1.06-10.8s-.67-3.02-1.83-4.03c-1.31-1.13-2.6-2.3-3.79-3.39C28.48,96.51,3.3,71.95,1.62,49.97c-.16-2.09-.16-5.42,0-7.74C2.97,22.48,18.94,5.21,38.77,2.04c2.27-.36,4.58-.54,6.86-.54,23.29,0,43.23,18.6,44.44,41.47.12,2.25,0,8.52,0,8.79l-.03,1.49-11.38-.15.05-1.53c0-.06.2-6.25-.09-8.87-1.84-16.97-15.93-29.77-32.77-29.77-4.86,0-9.63,1.08-14.17,3.2-13.13,6.15-20.8,21.02-18.24,35.37,2.89,16.23,21.29,34.87,26.86,40.19,1.71,1.63,5.44,5.16,8.24,7.8,2.54,2.4,4,5.78,4,9.27v2.15c0,1.56-.28,8.47-1.06,10.8l-4.32,12.87-4.32-12.87Z" style="fill: #7f7f7f;"/>
          <path d="M45.63,3c22.05,0,41.74,17.35,42.95,40.05.12,2.23-.01,8.68-.01,8.68l-8.37-.11s.21-6.32-.1-9.08c-2-18.37-17.3-31.11-34.26-31.11-4.89,0-9.92,1.06-14.81,3.35-13.71,6.42-21.74,22.06-19.08,36.99,2.58,14.47,16.89,31.06,27.3,41.02,1.71,1.64,5.44,5.16,8.25,7.81,2.25,2.13,3.53,5.08,3.53,8.18v2.15c0,2.04-.33,8.38-.98,10.32l-2.9,8.63-2.9-8.63c-.65-1.93-.98-8.28-.98-10.32s-.85-3.87-2.35-5.17c-1.3-1.13-2.58-2.28-3.76-3.36C23.85,90.25,4.53,68.45,3.11,49.85c-.16-2.12-.15-5.39,0-7.52C4.43,23.14,20.09,6.54,39,3.53c2.22-.35,4.44-.53,6.63-.53M45.63,0c-2.37,0-4.76.19-7.1.56C18.03,3.83,1.52,21.7.12,42.12c-.16,2.38-.16,5.8,0,7.95,1.72,22.53,27.24,47.44,35.02,54.54,1.14,1.04,2.48,2.25,3.82,3.41.84.72,1.32,1.78,1.32,2.9,0,1.03.21,8.52,1.14,11.27l2.9,8.63,2.84,8.47,2.84-8.47,2.9-8.63c.92-2.76,1.14-10.24,1.14-11.27v-2.15c0-3.91-1.63-7.68-4.47-10.36-2.81-2.65-6.52-6.16-8.23-7.8-5.49-5.25-23.61-23.59-26.42-39.37-2.44-13.7,4.88-27.89,17.4-33.75,4.34-2.03,8.9-3.06,13.53-3.06,16.07,0,29.52,12.22,31.28,28.43.23,2.09.14,6.96.08,8.66l-.1,3.06,3.06.04,8.37.11,2.98.04.06-2.98c0-.27.13-6.59,0-8.9-.62-11.65-5.81-22.51-14.62-30.59C68.29,4.37,57.17,0,45.63,0h0Z" style="fill: #fff;"/>
        </g>
        <g>
          <path d="M45.84,65.01c-10.61,0-19.23-8.63-19.23-19.23s8.63-19.23,19.23-19.23,19.24,8.63,19.24,19.23-8.63,19.23-19.24,19.23ZM45.84,37.97c-4.31,0-7.81,3.5-7.81,7.81s3.5,7.81,7.81,7.81,7.81-3.5,7.81-7.81-3.5-7.81-7.81-7.81Z" style="fill: #7f7f7f;"/>
          <path d="M45.84,28.04c9.79,0,17.73,7.94,17.73,17.73s-7.94,17.73-17.73,17.73-17.73-7.94-17.73-17.73,7.94-17.73,17.73-17.73M45.84,55.09c5.14,0,9.31-4.17,9.31-9.31s-4.17-9.31-9.31-9.31-9.31,4.17-9.31,9.31,4.17,9.31,9.31,9.31M45.84,25.04c-11.43,0-20.73,9.3-20.73,20.73s9.3,20.73,20.73,20.73,20.73-9.3,20.73-20.73-9.3-20.73-20.73-20.73h0ZM45.84,52.09c-3.48,0-6.31-2.83-6.31-6.31s2.83-6.31,6.31-6.31,6.31,2.83,6.31,6.31-2.83,6.31-6.31,6.31h0Z" style="fill: #fff;"/>
        </g>
      </g>
    </g>
  </g>
</svg>